<svg width="72" height="73" viewBox="0 0 72 73" fill="none" xmlns="http://www.w3.org/2000/svg">
<path d="M59.4377 25.47C59.4378 25.6906 59.3945 25.909 59.3101 26.1128C59.2257 26.3166 59.102 26.5018 58.946 26.6577L58.9372 26.6811C58.173 26.3841 57.3262 26.3794 56.5588 26.6679L56.5471 26.6344C56.3566 26.4363 56.2176 26.1944 56.1423 25.9301C56.0671 25.6658 56.0578 25.387 56.1154 25.1182C56.173 24.8495 56.2956 24.599 56.4725 24.3886C56.6495 24.1783 56.8753 24.0146 57.1303 23.912C57.3852 23.8093 57.6614 23.7707 57.9348 23.7996C58.2081 23.8286 58.4701 23.9241 58.6979 24.0779C58.9257 24.2317 59.1123 24.4391 59.2413 24.6818C59.3702 24.9245 59.4377 25.1951 59.4377 25.47Z" fill="#FDC75B"/>
<path d="M61.059 30.7755V29.7832C61.0591 29.1126 60.8565 28.4576 60.4779 27.904C60.0994 27.3505 59.5624 26.9242 58.9374 26.681L58.9462 26.6577C59.1798 26.4238 59.3393 26.1261 59.4044 25.8019C59.4696 25.4777 59.4376 25.1415 59.3125 24.8355C59.1874 24.5294 58.9747 24.2671 58.7011 24.0815C58.4275 23.8958 58.1051 23.795 57.7745 23.7918C57.4439 23.7886 57.1196 23.8831 56.8425 24.0634C56.5653 24.2437 56.3476 24.5018 56.2165 24.8054C56.0854 25.1089 56.0469 25.4444 56.1058 25.7698C56.1646 26.0952 56.3182 26.3959 56.5473 26.6344L56.559 26.6679C55.9788 26.8868 55.4712 27.2631 55.0933 27.7547C54.7154 28.2463 54.4822 28.8336 54.4198 29.4505C54.4155 29.4929 54.4096 30.3275 54.4067 31.0819C54.4038 31.7195 54.4023 32.3003 54.4023 32.3003C54.4023 33.183 54.753 34.0296 55.3772 34.6538C56.0014 35.278 56.8479 35.6286 57.7307 35.6286C58.6134 35.6286 59.46 35.278 60.0842 34.6538C60.7084 34.0296 61.059 33.183 61.059 32.3003V30.7755ZM57.8474 21.4485C60.6557 21.4486 63.39 22.3489 65.649 24.0173C67.908 25.6857 69.5727 28.0342 70.3989 30.7183C71.225 33.4023 71.169 36.2805 70.2391 38.9304C69.3092 41.5802 67.5544 43.8623 65.2322 45.4415L65.1841 45.3715V40.8918C65.2326 40.4109 65.1798 39.925 65.029 39.4657C64.8782 39.0064 64.6327 38.5839 64.3085 38.2253C63.9843 37.8667 63.5885 37.5801 63.1467 37.3839C62.7049 37.1877 62.2268 37.0863 61.7434 37.0863H60.9029L60.2828 38.4244C60.0666 38.8895 59.7198 39.2818 59.2846 39.5532C58.8494 39.8246 58.3446 39.9635 57.8318 39.953C57.319 39.9425 56.8203 39.783 56.3966 39.4939C55.9729 39.2049 55.6425 38.7988 55.4456 38.3252L54.8984 37.0863H53.9514C53.468 37.0863 52.99 37.1877 52.5481 37.3839C52.1063 37.5801 51.7105 37.8667 51.3863 38.2253C51.0621 38.5839 50.8166 39.0064 50.6658 39.4657C50.515 39.925 50.4622 40.4109 50.5107 40.8918V45.3729L50.4626 45.4415C48.1404 43.8623 46.3856 41.5802 45.4557 38.9304C44.5258 36.2805 44.4698 33.4023 45.296 30.7183C46.1221 28.0342 47.7868 25.6857 50.0458 24.0173C52.3048 22.3489 55.0391 21.4486 57.8474 21.4485Z" fill="#ED664C"/>
<path d="M65.1824 45.3716L65.2306 45.4416C63.0543 46.926 60.4801 47.7179 57.8458 47.7135C57.3152 47.7137 56.785 47.682 56.2582 47.6187L51.6589 50.5035V46.1683C51.2471 45.9473 50.8472 45.7048 50.4609 45.4416L50.5091 45.373V40.8919C50.4605 40.411 50.5134 39.9251 50.6642 39.4658C50.815 39.0065 51.0604 38.584 51.3846 38.2254C51.7089 37.8668 52.1047 37.5802 52.5465 37.384C52.9883 37.1878 53.4664 37.0865 53.9498 37.0864H54.8968L55.444 38.3253C55.6409 38.7988 55.9714 39.2049 56.3951 39.4939C56.8188 39.7829 57.3174 39.9424 57.8302 39.9529C58.343 39.9634 58.8477 39.8245 59.2829 39.5531C59.7181 39.2817 60.0649 38.8896 60.2811 38.4245L60.9013 37.0864H61.7417C62.2252 37.0865 62.7032 37.1878 63.145 37.384C63.5869 37.5802 63.9827 37.8668 64.3069 38.2254C64.6311 38.584 64.8765 39.0065 65.0273 39.4658C65.1782 39.9251 65.231 40.411 65.1824 40.8919V45.3716ZM61.0574 30.7756V32.3004C61.0574 33.1831 60.7067 34.0297 60.0825 34.6539C59.4583 35.2781 58.6118 35.6287 57.729 35.6287C56.8463 35.6287 55.9997 35.2781 55.3755 34.6539C54.7513 34.0297 54.4007 33.1831 54.4007 32.3004C54.4007 32.3004 54.4021 31.7196 54.4051 31.082C55.4367 31.0207 56.3735 30.2707 56.5661 29.3777C57.5277 30.0358 58.9795 30.672 61.0574 30.7756Z" fill="#FDC75B"/>
<path d="M56.5667 29.3777C55.9569 28.9757 55.4303 28.46 55.0156 27.8588C55.3991 27.3165 55.9363 26.9018 56.558 26.6681C57.1566 26.4428 57.8075 26.3948 58.4328 26.5299C59.058 26.665 59.631 26.9774 60.0833 27.4298C60.3929 27.7385 60.6383 28.1054 60.8056 28.5093C60.9729 28.9132 61.0587 29.3462 61.058 29.7834V30.7756C58.9802 30.672 57.5283 30.0358 56.5667 29.3777Z" fill="#FDC75B"/>
<path d="M53.2032 55.1348L45.9074 71.1856H21.7772H21.1016L28.3974 55.1348H33.0682H53.2032Z" fill="#ED664C"/>
<path d="M30.6242 9.8307L30.6402 11.4343C30.6502 12.3888 31.0363 13.3008 31.7146 13.9723C32.393 14.6438 33.3088 15.0206 34.2633 15.0209H34.3013C34.7772 15.0162 35.2475 14.9177 35.6853 14.7311C36.1232 14.5445 36.52 14.2734 36.853 13.9335C37.1861 13.5935 37.4489 13.1912 37.6265 12.7496C37.8041 12.3081 37.8929 11.8358 37.8879 11.3599L37.8573 8.2227L37.8543 7.97464C37.8467 7.26382 37.5572 6.5851 37.0493 6.08767C36.5415 5.59024 35.8569 5.3148 35.1461 5.32188L31.2735 5.36128C31.2337 5.36116 31.1941 5.36556 31.1553 5.37441C30.9943 5.4033 30.8487 5.48837 30.7445 5.61447C30.6403 5.74058 30.5842 5.89956 30.5862 6.06313L30.6169 9.04129L30.6242 9.8307ZM34.4997 1.02026C37.2402 1.02053 39.912 1.87815 42.1407 3.47297C44.3694 5.06779 46.0433 7.31989 46.9279 9.91373C47.8126 12.5076 47.8635 15.3132 47.0737 17.9374C46.2839 20.5617 44.6929 22.8731 42.5237 24.5478L42.474 20.6694C42.5218 20.1452 42.4591 19.6168 42.2901 19.1184C42.121 18.62 41.8493 18.1625 41.4924 17.7756C41.1356 17.3887 40.7017 17.0809 40.2185 16.8721C39.7354 16.6632 39.2138 16.558 38.6875 16.5633L37.7726 16.572L36.3747 21.6952L34.8441 19.0278L33.9817 19.0366L32.6174 21.7331L31.2326 16.5545L30.2025 16.6494C29.676 16.6545 29.1564 16.77 28.6773 16.9884C28.1983 17.2068 27.7703 17.5233 27.4212 17.9174C27.072 18.3116 26.8094 18.7745 26.6504 19.2764C26.4913 19.7784 26.4393 20.3081 26.4977 20.8313L26.5473 24.6047C24.36 22.9403 22.7501 20.6316 21.9443 18.0038C21.1385 15.376 21.1774 12.5617 22.0556 9.95722C22.9338 7.35275 24.607 5.08945 26.8395 3.48616C29.0719 1.88287 31.7512 1.02041 34.4997 1.02026Z" fill="#FDC75B"/>
<path d="M32.6156 21.7331L33.9799 19.0366L34.8423 19.0278L36.373 21.6952L37.7708 16.5721L38.6857 16.5633C39.212 16.5581 39.7336 16.6633 40.2167 16.8721C40.6999 17.0809 41.1339 17.3887 41.4907 17.7756C41.8475 18.1626 42.1192 18.62 42.2883 19.1185C42.4573 19.6169 42.52 20.1452 42.4723 20.6694L42.5219 24.5479C40.226 26.3271 37.4025 27.2903 34.4979 27.2853C33.9673 27.2854 33.4372 27.2537 32.9104 27.1904L28.3111 30.0752V25.74C27.6932 25.4093 27.1028 25.0297 26.5455 24.6048L26.4959 20.8314C26.4375 20.3081 26.4895 19.7784 26.6486 19.2765C26.8077 18.7746 27.0703 18.3116 27.4194 17.9175C27.7685 17.5234 28.1965 17.2069 28.6756 16.9885C29.1546 16.77 29.6742 16.6545 30.2007 16.6494L31.2309 16.5546L32.6156 21.7331ZM37.8861 11.3599C37.8911 11.8359 37.8023 12.3081 37.6247 12.7497C37.4471 13.1912 37.1843 13.5935 36.8513 13.9335C36.5182 14.2735 36.1214 14.5445 35.6836 14.7311C35.2457 14.9177 34.7754 15.0162 34.2995 15.021H34.2615C33.307 15.0206 32.3912 14.6438 31.7129 13.9723C31.0345 13.3008 30.6484 12.3888 30.6384 11.4344L30.6224 9.83073C30.7785 9.49221 31.5227 8.07828 33.192 7.80396C34.2601 8.54813 35.7207 9.01798 37.4761 8.22711L37.8555 8.22273L37.8861 11.3599Z" fill="#FDC75B"/>
<path d="M33.1916 7.80395C32.389 7.22454 31.7112 6.48962 31.1984 5.64293L31.1532 5.37444C31.1919 5.36559 31.2316 5.36119 31.2714 5.36131L35.144 5.32191C35.8548 5.31483 36.5394 5.59027 37.0472 6.08771C37.555 6.58514 37.8446 7.26385 37.8522 7.97467L37.8551 8.22273L37.4757 8.22711C35.7204 9.01797 34.2597 8.54812 33.1916 7.80395ZM13.3047 58.7507L16.0917 53.3722L17.8223 53.3736L20.834 58.7521L23.7406 48.5117H25.5733C27.414 48.512 29.1912 49.1847 30.5708 50.4033C31.9503 51.6219 32.8372 53.3024 33.0647 55.129V55.1348H28.3939L21.0981 71.1857H1.05792V56.8187C0.951623 55.7689 1.06667 54.7084 1.39563 53.7058C1.7246 52.7032 2.26016 51.7807 2.96776 50.9979C3.67535 50.215 4.53924 49.5893 5.50365 49.1611C6.46807 48.7329 7.51156 48.5116 8.56678 48.5117L10.6344 48.3424L13.3047 58.7507Z" fill="#FDC75B"/>
<path d="M33.1946 7.80402C31.5253 8.07834 30.7811 9.49227 30.625 9.8308L30.6177 9.04139L30.5871 6.06324C30.5851 5.89966 30.6412 5.74068 30.7454 5.61458C30.8496 5.48847 30.9951 5.4034 31.1562 5.37451L31.2014 5.643C31.7142 6.48969 32.392 7.22461 33.1946 7.80402ZM24.0821 35.1619V38.0671C24.0821 39.9935 23.3168 41.8411 21.9546 43.2033C20.5924 44.5655 18.7449 45.3308 16.8184 45.3308C14.8919 45.3308 13.0444 44.5655 11.6822 43.2033C10.32 41.8411 9.55469 39.9935 9.55469 38.0671V35.1619C9.55469 33.2354 10.32 31.3879 11.6822 30.0257C13.0444 28.6634 14.8919 27.8982 16.8184 27.8982C18.7449 27.8982 20.5924 28.6634 21.9546 30.0257C23.3168 31.3879 24.0821 33.2354 24.0821 35.1619Z" fill="#FDC75B"/>
<path d="M19.2778 48.7349L17.8245 53.3721H16.0925L14.6406 48.7349H19.2778Z" fill="#FDC75B"/>
<path d="M53.2016 54.1135H33.9214C33.4809 52.23 32.4167 50.5507 30.9016 49.3484C29.3864 48.1461 27.5092 47.4912 25.5749 47.4903H23.7425C23.5203 47.4903 23.3041 47.5628 23.1268 47.6968C22.9494 47.8308 22.8206 48.0189 22.7599 48.2327L20.5251 56.1064L18.9312 53.2598L20.2537 49.0402C20.3016 48.8873 20.3129 48.7252 20.2865 48.5671C20.2602 48.409 20.197 48.2593 20.1021 48.1301C20.0072 48.0009 19.8833 47.8959 19.7403 47.8235C19.5973 47.7511 19.4392 47.7134 19.2789 47.7134H14.6417C14.4815 47.7134 14.3235 47.7511 14.1805 47.8235C14.0375 47.8959 13.9136 48.0009 13.8187 48.13C13.7238 48.2592 13.6606 48.4088 13.6343 48.5669C13.6079 48.725 13.6191 48.887 13.667 49.04L14.9931 53.2756L13.6305 55.9039L11.6256 48.0886C11.5657 47.8551 11.4252 47.6503 11.2289 47.5105C11.0325 47.3706 10.7931 47.3047 10.5529 47.3244L8.52549 47.4905C7.33559 47.4964 6.15996 47.7501 5.07351 48.2354C3.98707 48.7207 3.01362 49.427 2.21519 50.3093C1.41675 51.1916 0.81085 52.2305 0.436073 53.3598C0.0612967 54.4892 -0.0741337 55.6842 0.0384103 56.8688V71.1857C0.0384103 71.4566 0.146023 71.7164 0.337576 71.9079C0.529128 72.0995 0.788929 72.2071 1.05982 72.2071H45.9058C46.1018 72.2071 46.2937 72.1507 46.4586 72.0446C46.6235 71.9386 46.7543 71.7873 46.8355 71.6088L54.1314 55.558C54.2022 55.4024 54.2328 55.2315 54.2205 55.061C54.2081 54.8905 54.1531 54.7258 54.0606 54.5821C53.9681 54.4383 53.841 54.3201 53.6909 54.2382C53.5408 54.1563 53.3726 54.1134 53.2016 54.1135ZM17.8885 49.7564L17.0753 52.3508H16.8442L16.0319 49.7564H17.8885ZM2.07599 56.7157C1.98411 55.8079 2.08364 54.891 2.36814 54.024C2.65264 53.1571 3.11578 52.3594 3.72768 51.6826C4.33957 51.0057 5.08661 50.4647 5.92056 50.0945C6.75451 49.7242 7.65683 49.533 8.56927 49.5331C8.59699 49.5331 8.62486 49.532 8.65259 49.5298L9.86165 49.4309L12.3173 59.0046C12.3183 59.0088 12.32 59.0126 12.3211 59.0168C12.3281 59.0431 12.3357 59.0688 12.3451 59.0942C12.3475 59.1007 12.35 59.1075 12.3524 59.1139C12.3622 59.139 12.3726 59.1633 12.3838 59.1868C12.387 59.1937 12.3904 59.2007 12.3937 59.2074C12.405 59.23 12.4172 59.2521 12.4302 59.2737L12.4438 59.2961C12.4568 59.3166 12.4705 59.3362 12.4846 59.3557C12.4902 59.3631 12.4956 59.3702 12.5011 59.3777C12.5157 59.3965 12.5313 59.4148 12.5472 59.4326C12.5532 59.4391 12.5591 59.4457 12.565 59.4521C12.582 59.4699 12.5996 59.487 12.6177 59.5036C12.6234 59.5089 12.6291 59.5141 12.6349 59.5192C12.6544 59.5362 12.6745 59.5524 12.6952 59.5678L12.7098 59.5793C12.7315 59.5951 12.7536 59.6097 12.7771 59.6231L12.7916 59.6316C12.8151 59.6453 12.8391 59.6578 12.8637 59.6697L12.8783 59.677C12.9023 59.6881 12.9266 59.698 12.9513 59.7072L12.9711 59.7145C12.9943 59.7225 13.018 59.7291 13.0419 59.7359C13.0509 59.7384 13.0601 59.7407 13.0693 59.7429C13.0909 59.748 13.1131 59.7524 13.1351 59.7561C13.1471 59.7581 13.1592 59.76 13.1713 59.7616C13.1916 59.7642 13.2119 59.7663 13.2325 59.7677C13.2463 59.7687 13.2602 59.7695 13.274 59.7698C13.2846 59.7698 13.2948 59.7714 13.3053 59.7714C13.3126 59.7714 13.3199 59.7699 13.327 59.7698C13.3594 59.7698 13.3919 59.7666 13.4246 59.7628C13.4458 59.7603 13.4667 59.7571 13.4874 59.7533C13.5113 59.7489 13.5352 59.7448 13.5592 59.7387C13.5634 59.7377 13.5673 59.7361 13.5714 59.7349C13.5913 59.7295 13.6107 59.7232 13.6298 59.7167C13.652 59.7092 13.6736 59.701 13.6949 59.6923C13.7112 59.6856 13.7277 59.6792 13.7436 59.6716C13.7787 59.655 13.8128 59.6364 13.8457 59.6158C13.8548 59.6101 13.8633 59.6037 13.8722 59.5977C13.899 59.5798 13.9248 59.5608 13.9496 59.5405C13.9593 59.5325 13.9689 59.5246 13.9788 59.5163C14.0069 59.4918 14.0336 59.4658 14.0588 59.4384C14.0619 59.4352 14.0651 59.4323 14.0681 59.4289C14.0948 59.3985 14.1196 59.3666 14.1425 59.3333C14.1501 59.3224 14.1571 59.3113 14.1644 59.3001C14.1812 59.274 14.1967 59.2471 14.211 59.2195C14.2148 59.2121 14.2199 59.2049 14.2235 59.1978L16.7132 54.3932H17.2239L19.9433 59.2499C20.032 59.4083 20.1613 59.5401 20.3179 59.632C20.4745 59.7238 20.6527 59.7722 20.8343 59.7722C20.8742 59.7722 20.9141 59.7699 20.9538 59.7652C21.1543 59.7417 21.3433 59.6592 21.497 59.5283C21.6506 59.3974 21.762 59.2239 21.8172 59.0297L24.5131 49.5318H25.5741C26.9651 49.5324 28.3197 49.9769 29.4406 50.8007C30.5614 51.6246 31.3901 52.7847 31.8059 54.1121H28.3958C28.1997 54.1121 28.0078 54.1685 27.8429 54.2746C27.678 54.3806 27.5471 54.5319 27.4659 54.7104L20.4423 70.1643H2.08124V56.8188C2.08124 56.7843 2.07949 56.75 2.07599 56.7157ZM45.248 70.1643H22.6862L29.0534 56.1563H51.6152L45.248 70.1643ZM16.8173 46.3522C19.0139 46.3497 21.1199 45.476 22.6731 43.9228C24.2263 42.3696 25.1 40.2636 25.1025 38.067V35.1618C25.1025 32.9645 24.2296 30.8571 22.6758 29.3034C21.122 27.7496 19.0147 26.8767 16.8173 26.8767C14.62 26.8767 12.5126 27.7496 10.9589 29.3034C9.4051 30.8571 8.5322 32.9645 8.5322 35.1618V38.067C8.53468 40.2636 9.40837 42.3696 10.9616 43.9228C12.5148 45.476 14.6207 46.3497 16.8173 46.3522ZM10.575 35.1618C10.575 33.5063 11.2327 31.9185 12.4034 30.7479C13.574 29.5772 15.1618 28.9195 16.8173 28.9195C18.4729 28.9195 20.0607 29.5772 21.2313 30.7479C22.402 31.9185 23.0596 33.5063 23.0596 35.1618V38.067C23.0596 39.7226 22.402 41.3104 21.2313 42.481C20.0607 43.6517 18.4729 44.3093 16.8173 44.3093C15.1618 44.3093 13.574 43.6517 12.4034 42.481C11.2327 41.3104 10.575 39.7226 10.575 38.067V35.1618ZM60.3281 26.2952C60.4578 25.8915 60.4906 25.4628 60.4238 25.0441C60.3571 24.6253 60.1926 24.2281 59.9438 23.8847C59.695 23.5413 59.3688 23.2613 58.9916 23.0674C58.6145 22.8735 58.197 22.7711 57.7729 22.7686C57.3488 22.7661 56.9301 22.8634 56.5507 23.0528C56.1712 23.2422 55.8417 23.5183 55.5888 23.8587C55.3359 24.1991 55.1667 24.5943 55.095 25.0122C55.0232 25.4302 55.0508 25.8592 55.1757 26.2644C54.6797 26.6238 54.2653 27.0841 53.9598 27.6149C53.6542 28.1457 53.4644 28.7352 53.4027 29.3446C53.3971 29.3973 53.3903 29.4629 53.3838 31.0778C53.3809 31.7163 53.3796 32.2978 53.3796 32.3003C53.3796 33.4539 53.8379 34.5603 54.6536 35.376C55.4694 36.1918 56.5757 36.65 57.7294 36.65C58.883 36.65 59.9894 36.1918 60.8051 35.376C61.6209 34.5603 62.0791 33.4539 62.0791 32.3003V29.7832C62.0807 29.2118 61.9689 28.6457 61.7503 28.1177C61.5316 27.5898 61.2104 27.1104 60.8053 26.7074C60.6563 26.5588 60.4968 26.4211 60.3281 26.2952ZM57.1428 28.5346C56.8717 28.35 56.6177 28.1414 56.384 27.9113C56.6958 27.6857 57.0593 27.5422 57.441 27.4937C57.8228 27.4453 58.2106 27.4935 58.5688 27.634C58.9788 27.7939 59.3344 28.0679 59.5934 28.4237C59.8523 28.7795 60.0038 29.2021 60.0299 29.6414C58.9976 29.4902 58.0116 29.1123 57.1428 28.5346ZM57.757 24.812C57.9314 24.8122 58.0987 24.8816 58.222 25.005C58.3454 25.1284 58.4148 25.2956 58.415 25.4701C58.415 25.4762 58.4134 25.4822 58.4133 25.4883C57.9785 25.4186 57.5357 25.4155 57.1 25.4793C57.1 25.4762 57.0992 25.4731 57.0992 25.4701C57.0994 25.2956 57.1687 25.1284 57.2921 25.005C57.4154 24.8816 57.5826 24.8122 57.7571 24.812H57.757ZM57.7292 34.6074C57.1178 34.6074 56.5313 34.3647 56.0988 33.9326C55.6662 33.5005 55.4229 32.9143 55.4223 32.3029C55.4223 32.3029 55.4223 32.1424 55.4235 31.9C56.0319 31.6814 56.569 31.3006 56.9766 30.7988C57.9388 31.2698 58.9729 31.5769 60.0362 31.7076V32.3006C60.0355 32.9122 59.7922 33.4985 59.3598 33.9309C58.9273 34.3634 58.341 34.6067 57.7294 34.6074H57.7292Z" fill="black"/>
<path d="M57.8454 20.4272C54.8188 20.4274 51.8719 21.3976 49.4372 23.1957C47.0026 24.9937 45.2084 27.5247 44.3179 30.4174C43.4274 33.3101 43.4876 36.412 44.4896 39.2679C45.4916 42.1239 47.3827 44.5835 49.8852 46.2857C50.1286 46.4517 50.3803 46.6117 50.6371 46.7643V50.5035C50.6371 50.686 50.686 50.8652 50.7787 51.0223C50.8714 51.1795 51.0045 51.309 51.1641 51.3974C51.3238 51.4857 51.5042 51.5296 51.6867 51.5246C51.8691 51.5196 52.0468 51.4658 52.2014 51.3688L56.5009 48.672C56.9461 48.7139 57.3969 48.735 57.8454 48.735C61.5993 48.735 65.1994 47.2438 67.8537 44.5894C70.5081 41.9351 71.9993 38.335 71.9993 34.5811C71.9993 30.8273 70.5081 27.2272 67.8537 24.5728C65.1994 21.9185 61.5993 20.4272 57.8454 20.4272ZM56.38 46.6046C56.1478 46.5767 55.9131 46.6292 55.715 46.7535L52.68 48.6571V46.1684C52.68 45.9837 52.6299 45.8026 52.5352 45.6441C52.4404 45.4857 52.3045 45.3558 52.1418 45.2685C51.9342 45.157 51.7304 45.0384 51.5302 44.9157V40.892C51.5302 40.8577 51.5285 40.8236 51.525 40.7899C51.4909 40.451 51.5281 40.1087 51.6344 39.7851C51.7407 39.4615 51.9137 39.1638 52.1421 38.9111C52.3705 38.6585 52.6494 38.4565 52.9607 38.3183C53.272 38.1801 53.6088 38.1087 53.9494 38.1087H54.2311L54.5052 38.7292C54.78 39.3841 55.2392 39.945 55.8269 40.3437C56.4146 40.7424 57.1055 40.9618 57.8155 40.9751C58.5256 40.9884 59.2242 40.7951 59.8264 40.4187C60.4286 40.0423 60.9085 39.499 61.2076 38.8549L61.5534 38.1088H61.7415C62.0822 38.1088 62.419 38.1802 62.7303 38.3184C63.0416 38.4566 63.3205 38.6586 63.549 38.9112C63.7774 39.1639 63.9504 39.4616 64.0567 39.7852C64.163 40.1088 64.2002 40.4511 64.1661 40.79C64.1628 40.8242 64.1611 40.8582 64.161 40.8922V44.9155C62.261 46.081 60.0747 46.6961 57.8457 46.6923C57.3558 46.6923 56.8664 46.663 56.38 46.6046ZM66.2035 43.3441V40.94C66.2584 40.3209 66.1838 39.6971 65.9844 39.1083C65.7851 38.5195 65.4654 37.9787 65.0457 37.5202C64.6261 37.0616 64.1155 36.6955 63.5466 36.445C62.9778 36.1945 62.363 36.0651 61.7414 36.0651H60.9009C60.7061 36.0651 60.5153 36.1209 60.3511 36.2257C60.1869 36.3306 60.0561 36.4803 59.9742 36.6571L59.3554 37.9922C59.2242 38.2732 59.0159 38.511 58.7546 38.678C58.5551 38.8051 58.3302 38.887 58.0956 38.9179C57.8611 38.9488 57.6227 38.928 57.397 38.857C57.1714 38.786 56.964 38.6664 56.7895 38.5068C56.6149 38.3471 56.4775 38.1511 56.3867 37.9327C56.3838 37.9258 56.3809 37.9181 56.3778 37.9121L55.8306 36.6733C55.7507 36.4923 55.6198 36.3383 55.454 36.2303C55.2883 36.1222 55.0946 36.0646 54.8967 36.0645H53.9497C53.3282 36.0645 52.7134 36.1939 52.1445 36.4444C51.5757 36.695 51.0652 37.0611 50.6455 37.5196C50.2258 37.9781 49.9061 38.519 49.7068 39.1077C49.5075 39.6965 49.4329 40.3203 49.4878 40.9394V43.3449C47.7365 41.6749 46.5257 39.5186 46.0115 37.154C45.4972 34.7895 45.703 32.3251 46.6025 30.0786C47.5019 27.8321 49.0537 25.9066 51.0577 24.5503C53.0617 23.194 55.426 22.4691 57.8459 22.4691C60.2657 22.4691 62.63 23.194 64.6341 24.5503C66.6381 25.9066 68.1898 27.8321 69.0892 30.0786C69.9887 32.3251 70.1945 34.7895 69.6803 37.154C69.166 39.5186 67.9552 41.6749 66.2039 43.3449L66.2035 43.3441Z" fill="black"/>
<path d="M25.9267 25.4173C26.3629 25.7496 26.8179 26.0566 27.2894 26.3366V30.0751C27.2894 30.2576 27.3383 30.4367 27.4309 30.5939C27.5236 30.751 27.6567 30.8805 27.8163 30.9688C27.976 31.0572 28.1564 31.1011 28.3388 31.0961C28.5212 31.0911 28.6989 31.0373 28.8535 30.9404L33.1532 28.2436C33.5982 28.2855 34.0491 28.3066 34.4976 28.3066C38.2513 28.3062 41.8512 26.8148 44.5054 24.1605C47.1597 21.5063 48.6511 17.9064 48.6515 14.1527C48.6513 11.7443 48.0366 9.37583 46.8655 7.27135C45.6944 5.16687 44.0056 3.39603 41.959 2.12641C39.9125 0.8568 37.5758 0.13041 35.1701 0.0159858C32.7644 -0.0984386 30.3693 0.402888 28.2115 1.47252C26.0537 2.54215 24.2045 4.14471 22.8389 6.12854C21.4733 8.11236 20.6365 10.4118 20.4078 12.8093C20.179 15.2068 20.5657 17.6231 21.5315 19.8294C22.4972 22.0357 24.0099 23.959 25.9265 25.4175L25.9267 25.4173ZM33.0328 26.1761C32.8006 26.1482 32.566 26.2008 32.3678 26.3249L29.3328 28.2287V25.74C29.3328 25.555 29.2826 25.3735 29.1875 25.2148C29.0924 25.0561 28.956 24.9263 28.7929 24.8391C28.3691 24.6122 27.9593 24.3603 27.5656 24.0845L27.5183 20.8535V20.8179V20.8164C27.5183 20.7835 27.5157 20.7505 27.5122 20.7178C27.4697 20.3365 27.5077 19.9505 27.6237 19.5847C27.7397 19.219 27.9311 18.8816 28.1856 18.5945C28.4401 18.3073 28.752 18.0768 29.1012 17.9177C29.4503 17.7586 29.829 17.6745 30.2127 17.6709C30.2404 17.6709 30.2681 17.6692 30.2957 17.6667L30.468 17.6508L31.6302 21.9971L32.6143 21.7344H32.6184L33.5283 22.1948L34.4442 20.3845L35.4884 22.2041C35.5889 22.3792 35.739 22.5205 35.9197 22.6103C36.1005 22.7001 36.3038 22.7344 36.504 22.7088C36.7042 22.6831 36.8923 22.5988 37.0446 22.4663C37.1969 22.3338 37.3065 22.1592 37.3596 21.9645L38.5543 17.587L38.6977 17.5856C39.0811 17.5818 39.461 17.6585 39.813 17.8107C40.1649 17.9628 40.481 18.187 40.741 18.4689C41.0009 18.7507 41.1989 19.084 41.3221 19.447C41.4453 19.8101 41.4911 20.195 41.4564 20.5768C41.4531 20.6121 41.4518 20.6474 41.4523 20.6828L41.4952 24.0389C39.4536 25.4945 37.0066 26.2728 34.4992 26.2638C34.0091 26.2638 33.5193 26.2346 33.0326 26.1762L33.0328 26.1761ZM34.4981 2.04167C36.8375 2.04196 39.1268 2.71973 41.0893 3.99307C43.0519 5.26641 44.6037 7.08084 45.5572 9.21712C46.5108 11.3534 46.8253 13.7201 46.4628 16.0313C46.1002 18.3425 45.0761 20.4992 43.5143 22.2409L43.4944 20.7063C43.5466 20.0481 43.4621 19.3863 43.2462 18.7624C43.0302 18.1385 42.6876 17.566 42.2397 17.081C41.7918 16.5959 41.2484 16.2088 40.6437 15.9439C40.0389 15.679 39.3859 15.542 38.7257 15.5417C38.7092 15.5417 38.6926 15.5417 38.676 15.5417L37.7611 15.5505C37.5387 15.5526 37.3231 15.6272 37.147 15.7631C36.971 15.8989 36.844 16.0884 36.7855 16.303L36.0349 19.0538L35.7284 18.5193C35.639 18.3634 35.51 18.2339 35.3544 18.1438C35.1989 18.0537 35.0223 18.0063 34.8426 18.0062H34.8321L33.9697 18.015C33.7826 18.0169 33.5997 18.0701 33.4408 18.1689C33.2819 18.2677 33.1532 18.4082 33.0687 18.5752L32.9117 18.8855L32.2178 16.2904C32.1554 16.0578 32.0128 15.8547 31.8153 15.7169C31.6178 15.5791 31.3779 15.5154 31.1381 15.537L30.1469 15.6284C29.4859 15.641 28.8347 15.7904 28.2343 16.0672C27.634 16.344 27.0975 16.7422 26.6587 17.2366C26.2198 17.7311 25.8882 18.3111 25.6847 18.9401C25.4811 19.569 25.4101 20.2334 25.4761 20.8912L25.494 22.2559C23.9289 20.5152 22.9016 18.3582 22.5364 16.046C22.1712 13.7337 22.4837 11.3652 23.4362 9.22684C24.3887 7.08846 25.9404 5.27186 27.9035 3.99672C29.8666 2.72157 32.1572 2.04252 34.4981 2.04167Z" fill="black"/>
<path d="M34.2651 16.0424H34.3134C35.5449 16.0285 36.7205 15.5266 37.5825 14.6469C38.4444 13.7672 38.9222 12.5816 38.9111 11.35L38.8775 7.96362C38.8639 6.98304 38.4631 6.04763 37.7624 5.36149C37.0618 4.67535 36.1182 4.29417 35.1375 4.30112L31.2753 4.34052C31.1674 4.34048 31.0598 4.35167 30.9542 4.37393C30.56 4.44867 30.2047 4.66006 29.9508 4.97091C29.697 5.28176 29.561 5.67215 29.5666 6.07342L29.6206 11.4446C29.6369 12.667 30.133 13.834 31.0018 14.6941C31.8706 15.5542 33.0426 16.0384 34.2651 16.0424ZM34.303 13.9996H34.2651C33.5803 13.9973 32.9238 13.7261 32.4371 13.2443C31.9504 12.7626 31.6725 12.1089 31.6632 11.4242L31.6497 10.0742C31.9497 9.53214 32.434 9.1156 33.0149 8.90011C33.8147 9.38976 34.7328 9.6525 35.6705 9.66019C36.0678 9.65903 36.4636 9.61128 36.8497 9.51792L36.8679 11.3711C36.8747 12.0593 36.6087 12.7222 36.128 13.2147C35.6474 13.7073 34.9912 13.9895 34.303 13.9996ZM35.1579 6.34322H35.1744C35.5131 6.34398 35.8434 6.44814 36.1212 6.64176C36.399 6.83538 36.6111 7.10922 36.729 7.42665C35.7053 7.784 34.737 7.63312 33.7786 6.96541C33.5234 6.78619 33.2841 6.58519 33.0636 6.36467L35.1579 6.34322Z" fill="black"/>
</svg>
