<svg width="74" height="23" viewBox="0 0 74 23" fill="none" xmlns="http://www.w3.org/2000/svg">
<path d="M46.366 5.184V18H44.512V12.258H37.33V18H35.494V5.184H37.33V10.728H44.512V5.184H46.366ZM56.9236 13.5H50.4436C50.5036 15.624 51.4696 16.686 53.3416 16.686C54.3856 16.686 55.3396 16.344 56.2036 15.66L56.7616 16.956C56.3536 17.316 55.8316 17.604 55.1956 17.82C54.5716 18.024 53.9416 18.126 53.3056 18.126C51.8536 18.126 50.7136 17.712 49.8856 16.884C49.0576 16.044 48.6436 14.898 48.6436 13.446C48.6436 12.522 48.8236 11.7 49.1836 10.98C49.5556 10.26 50.0716 9.702 50.7316 9.306C51.3916 8.91 52.1416 8.712 52.9816 8.712C54.2056 8.712 55.1656 9.108 55.8616 9.9C56.5696 10.692 56.9236 11.79 56.9236 13.194V13.5ZM53.0176 10.062C52.3336 10.062 51.7756 10.266 51.3436 10.674C50.9116 11.082 50.6356 11.664 50.5156 12.42H55.3216C55.2496 11.652 55.0156 11.07 54.6196 10.674C54.2236 10.266 53.6896 10.062 53.0176 10.062ZM59.0097 4.752H60.8097V18H59.0097V4.752ZM68.2806 8.712C69.0606 8.712 69.7566 8.91 70.3686 9.306C70.9806 9.702 71.4546 10.26 71.7906 10.98C72.1386 11.7 72.3126 12.528 72.3126 13.464C72.3126 14.4 72.1446 15.222 71.8086 15.93C71.4726 16.626 70.9986 17.166 70.3866 17.55C69.7746 17.934 69.0726 18.126 68.2806 18.126C67.5846 18.126 66.9726 17.982 66.4446 17.694C65.9286 17.394 65.5386 16.968 65.2746 16.416V21.888H63.4746V11.484C63.4746 10.536 63.4266 9.684 63.3306 8.928H65.0226L65.2026 10.602C65.4426 10.002 65.8326 9.54 66.3726 9.216C66.9126 8.88 67.5486 8.712 68.2806 8.712ZM67.8666 16.686C68.6826 16.686 69.3186 16.404 69.7746 15.84C70.2306 15.276 70.4586 14.484 70.4586 13.464C70.4586 12.432 70.2306 11.628 69.7746 11.052C69.3186 10.464 68.6826 10.17 67.8666 10.17C67.0266 10.17 66.3846 10.452 65.9406 11.016C65.4966 11.58 65.2746 12.384 65.2746 13.428C65.2746 14.472 65.4966 15.276 65.9406 15.84C66.3966 16.404 67.0386 16.686 67.8666 16.686Z" fill="white"/>
<path d="M8.8255 14.6255C8.78465 14.6706 8.74658 14.7182 8.7115 14.768C8.67555 14.821 8.6468 14.8785 8.626 14.939C8.59861 14.9928 8.5794 15.0505 8.569 15.11C8.56434 15.1732 8.56434 15.2367 8.569 15.3C8.56579 15.4246 8.59182 15.5483 8.645 15.661C8.68767 15.7789 8.75574 15.886 8.84439 15.9746C8.93305 16.0633 9.04011 16.1313 9.158 16.174C9.27172 16.2243 9.39468 16.2502 9.519 16.2502C9.64333 16.2502 9.76629 16.2243 9.88 16.174C9.99789 16.1313 10.105 16.0633 10.1936 15.9746C10.2823 15.886 10.3503 15.7789 10.393 15.661C10.4352 15.5455 10.4545 15.4229 10.45 15.3C10.4507 15.175 10.4268 15.051 10.3795 14.9353C10.3322 14.8195 10.2625 14.7143 10.1745 14.6255C10.0862 14.5365 9.98112 14.4658 9.86535 14.4176C9.74958 14.3693 9.62541 14.3445 9.5 14.3445C9.37459 14.3445 9.25042 14.3693 9.13465 14.4176C9.01889 14.4658 8.91382 14.5365 8.8255 14.6255ZM9.5 2C7.62108 2 5.78435 2.55717 4.22209 3.60104C2.65982 4.64491 1.44218 6.12861 0.723149 7.86451C0.0041162 9.6004 -0.184015 11.5105 0.182544 13.3534C0.549104 15.1962 1.45389 16.8889 2.78249 18.2175C4.11109 19.5461 5.80383 20.4509 7.64665 20.8175C9.48946 21.184 11.3996 20.9959 13.1355 20.2769C14.8714 19.5578 16.3551 18.3402 17.399 16.7779C18.4428 15.2156 19 13.3789 19 11.5C19 10.2524 18.7543 9.0171 18.2769 7.86451C17.7994 6.71191 17.0997 5.66464 16.2175 4.78248C15.3354 3.90033 14.2881 3.20056 13.1355 2.72314C11.9829 2.24572 10.7476 2 9.5 2ZM9.5 19.1C7.99686 19.1 6.52748 18.6543 5.27767 17.8192C4.02786 16.9841 3.05375 15.7971 2.47852 14.4084C1.90329 13.0197 1.75279 11.4916 2.04604 10.0173C2.33928 8.54306 3.06311 7.18887 4.12599 6.12599C5.18887 5.06311 6.54306 4.33928 8.01732 4.04603C9.49157 3.75278 11.0197 3.90329 12.4084 4.47852C13.7971 5.05374 14.9841 6.02785 15.8192 7.27766C16.6543 8.52748 17.1 9.99686 17.1 11.5C17.1 13.5156 16.2993 15.4487 14.874 16.874C13.4487 18.2993 11.5156 19.1 9.5 19.1ZM9.5 6.75C8.99941 6.74968 8.50757 6.88121 8.07397 7.13137C7.64036 7.38152 7.2803 7.74148 7.03 8.175C6.96127 8.28313 6.91511 8.40404 6.89432 8.53047C6.87352 8.65689 6.87852 8.78622 6.909 8.91067C6.93948 9.03511 6.99482 9.15211 7.07169 9.25461C7.14856 9.35712 7.24537 9.44301 7.3563 9.50713C7.46723 9.57125 7.58998 9.61227 7.71717 9.62772C7.84436 9.64317 7.97336 9.63273 8.09641 9.59703C8.21947 9.56133 8.33402 9.50111 8.4332 9.41999C8.53237 9.33887 8.61411 9.23853 8.6735 9.125C8.7572 8.98002 8.87772 8.85974 9.02286 8.77633C9.168 8.69291 9.3326 8.64933 9.5 8.65C9.75196 8.65 9.99359 8.75009 10.1718 8.92825C10.3499 9.10641 10.45 9.34804 10.45 9.6C10.45 9.85195 10.3499 10.0936 10.1718 10.2717C9.99359 10.4499 9.75196 10.55 9.5 10.55C9.24805 10.55 9.00641 10.6501 8.82825 10.8282C8.65009 11.0064 8.55 11.248 8.55 11.5V12.45C8.55 12.702 8.65009 12.9436 8.82825 13.1217C9.00641 13.2999 9.24805 13.4 9.5 13.4C9.75196 13.4 9.99359 13.2999 10.1718 13.1217C10.3499 12.9436 10.45 12.702 10.45 12.45V12.279C11.0783 12.051 11.6065 11.6095 11.9422 11.0315C12.278 10.4536 12.3999 9.77603 12.2867 9.11729C12.1735 8.45856 11.8324 7.86057 11.323 7.42784C10.8136 6.99511 10.1684 6.75518 9.5 6.75Z" fill="white"/>
</svg>
