<svg width="18" height="20" viewBox="0 0 18 20" fill="none" xmlns="http://www.w3.org/2000/svg">
<path d="M13.0784 8.46154H4.61689C4.41287 8.46154 4.21722 8.3805 4.07296 8.23624C3.9287 8.09198 3.84766 7.89632 3.84766 7.69231V5C3.84766 2.24308 6.09073 0 8.84766 0C11.6046 0 13.8477 2.24308 13.8477 5V7.69231C13.8477 7.89632 13.7666 8.09198 13.6224 8.23624C13.4781 8.3805 13.2824 8.46154 13.0784 8.46154ZM5.38612 6.92308H12.3092V5C12.3092 3.09154 10.7561 1.53846 8.84766 1.53846C6.93919 1.53846 5.38612 3.09154 5.38612 5V6.92308Z" fill="#7A7C87"/>
<path d="M15.3846 19.9998H2.30769C1.03538 19.9998 0 18.9644 0 17.6921V9.23054C0 7.95824 1.03538 6.92285 2.30769 6.92285H15.3846C16.6569 6.92285 17.6923 7.95824 17.6923 9.23054V17.6921C17.6923 18.9644 16.6569 19.9998 15.3846 19.9998ZM2.30769 8.46131C2.10368 8.46131 1.90802 8.54236 1.76376 8.68662C1.61951 8.83087 1.53846 9.02653 1.53846 9.23054V17.6921C1.53846 17.8961 1.61951 18.0918 1.76376 18.236C1.90802 18.3803 2.10368 18.4613 2.30769 18.4613H15.3846C15.5886 18.4613 15.7843 18.3803 15.9285 18.236C16.0728 18.0918 16.1538 17.8961 16.1538 17.6921V9.23054C16.1538 9.02653 16.0728 8.83087 15.9285 8.68662C15.7843 8.54236 15.5886 8.46131 15.3846 8.46131H2.30769Z" fill="#7A7C87"/>
</svg>
